<svg width="1000" height="1000" viewBox="0 0 100 100" class="css-1j8o68f"><defs id="SvgjsDefs2782"></defs><g id="SvgjsG2784" featurekey="nameFeature-0" transform="matrix(0.8200259282322029,0,0,0.8200259282322029,119.7047901653323,28.324556811242473)" fill="#252a34"><path d="M10.68 40.56 c-6.44 0 -10.2 -2.52 -10.32 -7.44 l8.36 0 c0.2 1.12 0.56 1.8 1.92 1.8 c1.04 0 1.56 -0.44 1.56 -1.04 c0 -0.8 -0.72 -1.2 -3.4 -1.48 c-5.68 -0.56 -8.32 -1.84 -8.32 -6.6 c0 -5 4.32 -7.36 9.92 -7.36 c5.92 0 9.72 1.84 10.16 7.16 l-8.2 0 c-0.2 -0.92 -0.68 -1.68 -1.8 -1.68 s-1.52 0.48 -1.52 1.08 c0 0.84 0.92 1.24 2.8 1.36 c6.56 0.68 9.28 2.04 9.28 6.56 c0 5.56 -4.28 7.64 -10.44 7.64 z M34.239999999999995 33.92 c1.92 0 2.72 -1.4 2.72 -4.28 l0 -0.32 c0 -2.84 -0.76 -4.2 -2.72 -4.2 c-1.88 0 -2.8 1.24 -2.8 4.08 l0 0.32 c0 3 0.8 4.4 2.8 4.4 z M34.2 40.56 c-6.68 0 -12.04 -3.64 -12.04 -10.72 l0 -0.32 c0 -6.96 5.32 -11.08 12.08 -11.08 c6.72 0 12 3.96 12 10.8 l0 0.32 c0 7.04 -5.36 11 -12.04 11 z M58.84 40.56 c-6.44 0 -11.4 -3.4 -11.4 -10.72 l0 -0.32 c0 -7.28 5.2 -11.08 11.68 -11.08 c5.48 0 10.52 2.32 10.84 9.24 l-8.52 0 c-0.2 -1.24 -0.44 -2.24 -2.08 -2.24 c-1.88 0 -2.6 1.16 -2.6 3.92 l0 0.32 c0 2.88 0.64 4.32 2.72 4.32 c1.48 0 2.24 -0.92 2.4 -2.6 l8.2 0 c-0.12 5.64 -3.64 9.16 -11.24 9.16 z M72.2 40 l0 -20.92 l9.12 0 l0 20.92 l-9.12 0 z M76.75999999999999 18.32 c-2.8 0 -4.84 -1.88 -4.84 -4.48 s2.04 -4.48 4.84 -4.48 c2.76 0 4.84 1.88 4.84 4.48 s-2.08 4.48 -4.84 4.48 z M90.8 40.56 c-3.72 0 -7.12 -1.84 -7.12 -6.36 c0 -4.96 3.64 -6.84 11.44 -6.84 l1.48 0 l0 -0.12 c0 -1.32 -0.08 -2.6 -1.88 -2.6 c-1.48 0 -1.76 1.16 -1.84 1.8 l-8.48 0 c0.28 -5.16 4.32 -8 10.88 -8 c6.68 0 10.36 2.72 10.36 8.12 l0 13.44 l-8.8 0 l0 -2.36 c-0.72 1.32 -2.52 2.92 -6.04 2.92 z M94.36 34.56 c1.32 0 2.24 -0.8 2.24 -1.88 l0 -0.68 l-1.4 0 c-2.16 0 -2.52 0.4 -2.52 1.4 c0 0.72 0.64 1.16 1.68 1.16 z M108.72 40 l0 -29.72 l9.08 0 l0 29.72 l-9.08 0 z M121.36 31.68 l0 -6.6 l12.56 0 l0 6.6 l-12.56 0 z M137.23999999999998 40 l0 -20.92 l9.16 0 l0 3.36 c1.2 -2.24 3.44 -4 6.96 -4 c3.88 0 6.56 2.6 6.56 7.56 l0 14 l-9.16 0 l0 -11.68 c0 -1.68 -0.56 -2.6 -2 -2.6 c-1.64 0 -2.36 0.92 -2.36 3.04 l0 11.24 l-9.16 0 z M173.88 40.56 c-6.88 0 -12 -3.72 -12 -10.72 l0 -0.32 c0 -6.96 5.48 -11.08 12.08 -11.08 c6.16 0 11.28 3.44 11.28 11 l0 1.96 l-14.16 0 c0.24 2.08 1.44 3.08 3.12 3.08 c1.92 0 2.48 -1 2.68 -1.84 l8.44 0 c-0.6 4.96 -4.28 7.92 -11.44 7.92 z M171.12 27.16 l5.36 0 c-0.04 -1.72 -0.76 -3 -2.52 -3 c-1.52 0 -2.6 0.96 -2.84 3 z M196.68 40.56 c-5.24 0 -8.28 -2.28 -8.28 -8.04 l0 -7.48 l-2.28 0 l0 -5.96 l2.28 0 l0 -4.16 l9.16 0 l0 4.16 l3.72 0 l0 5.96 l-3.72 0 l0 6.6 c0 1.24 0.68 1.76 1.88 1.76 c0.64 0 1.12 -0.08 1.76 -0.32 l0 6.8 c-1.04 0.28 -2.68 0.68 -4.52 0.68 z M208.32 40 l-6.24 -20.92 l9.48 0 l2.12 10.28 l2.68 -10.28 l7.28 0 l2.24 10.28 l2.64 -10.28 l8.52 0 l-6.68 20.92 l-8.48 0 l-2.48 -9.6 l-2.36 9.6 l-8.72 0 z M249.64000000000001 33.92 c1.92 0 2.72 -1.4 2.72 -4.28 l0 -0.32 c0 -2.84 -0.76 -4.2 -2.72 -4.2 c-1.88 0 -2.8 1.24 -2.8 4.08 l0 0.32 c0 3 0.8 4.4 2.8 4.4 z M249.60000000000002 40.56 c-6.68 0 -12.04 -3.64 -12.04 -10.72 l0 -0.32 c0 -6.96 5.32 -11.08 12.08 -11.08 c6.72 0 12 3.96 12 10.8 l0 0.32 c0 7.04 -5.36 11 -12.04 11 z M263.72 40 l0 -20.92 l9.16 0 l0 4.36 c1.32 -3.48 3.72 -4.72 6.68 -4.6 l0 8.52 c-4.44 -0.32 -6.68 1.12 -6.68 3.52 l0 9.12 l-9.16 0 z M281.92 40 l0 -29.72 l9.16 0 l0 15.96 l4.04 -7.16 l9.28 0 l-5.72 9.24 l6.16 11.68 l-10.04 0 l-3.72 -7.64 l0 7.64 l-9.16 0 z"></path></g></svg>